<mxfile host="Electron" agent="Mozilla/5.0 (Macintosh; Intel Mac OS X 10_15_7) AppleWebKit/537.36 (KHTML, like Gecko) draw.io/24.7.5 Chrome/126.0.6478.183 Electron/31.3.0 Safari/537.36" version="24.7.5">
  <diagram id="V4lAulNeN_WDX5JnY8aY" name="ontology">
    <mxGraphModel dx="817" dy="477" grid="1" gridSize="10" guides="1" tooltips="1" connect="1" arrows="1" fold="1" page="1" pageScale="1" pageWidth="850" pageHeight="1100" math="0" shadow="0">
      <root>
        <mxCell id="0" />
        <mxCell id="1" parent="0" />
        <mxCell id="mLb4iFboR8zkR100jdQ6-1" value="" style="rounded=0;whiteSpace=wrap;html=1;rotation=90;fontFamily=Helvetica;" parent="1" vertex="1">
          <mxGeometry x="911.6300000000001" y="-93.22000000000003" width="115.29" height="661.44" as="geometry" />
        </mxCell>
        <mxCell id="mLb4iFboR8zkR100jdQ6-2" value="YANG Library" style="rounded=0;whiteSpace=wrap;html=1;fillColor=#dae8fc;strokeColor=#6c8ebf;fontFamily=Helvetica;" parent="1" vertex="1">
          <mxGeometry x="1151.94" y="200.48" width="129.5" height="30" as="geometry" />
        </mxCell>
        <mxCell id="mLb4iFboR8zkR100jdQ6-3" value="Class" style="rounded=0;whiteSpace=wrap;html=1;fontFamily=Helvetica;" parent="1" vertex="1">
          <mxGeometry x="655.44" y="210.48999999999998" width="139.5" height="30" as="geometry" />
        </mxCell>
        <mxCell id="mLb4iFboR8zkR100jdQ6-4" value="Data Property: datatype" style="rounded=0;whiteSpace=wrap;html=1;fontFamily=Helvetica;" parent="1" vertex="1">
          <mxGeometry x="655.44" y="240.48999999999998" width="139.5" height="30" as="geometry" />
        </mxCell>
        <mxCell id="mLb4iFboR8zkR100jdQ6-5" value="Object Property" style="endArrow=classic;html=1;rounded=0;labelPosition=right;verticalLabelPosition=bottom;align=center;verticalAlign=middle;fontFamily=Helvetica;" parent="1" edge="1">
          <mxGeometry width="50" height="50" relative="1" as="geometry">
            <mxPoint x="963.94" y="215.86000000000004" as="sourcePoint" />
            <mxPoint x="1123.94" y="216.14000000000001" as="targetPoint" />
            <mxPoint as="offset" />
          </mxGeometry>
        </mxCell>
        <mxCell id="mLb4iFboR8zkR100jdQ6-6" value="&lt;font style=&quot;font-size: 11px;&quot; color=&quot;#000000&quot;&gt;rdf:type&lt;/font&gt;" style="endArrow=open;html=1;fontColor=#000099;endFill=0;dashed=1;endSize=8;rounded=0;fontSize=8;labelPosition=center;verticalLabelPosition=bottom;align=center;verticalAlign=middle;fontFamily=Helvetica;" parent="1" edge="1">
          <mxGeometry width="50" height="50" relative="1" as="geometry">
            <mxPoint x="963.94" y="264.1400000000002" as="sourcePoint" />
            <mxPoint x="1123.94" y="264.14" as="targetPoint" />
            <mxPoint as="offset" />
          </mxGeometry>
        </mxCell>
        <mxCell id="mLb4iFboR8zkR100jdQ6-7" value="subClassOf" style="endArrow=block;html=1;fontColor=#000000;endFill=0;endSize=8;arcSize=0;rounded=0;fontFamily=Helvetica;" parent="1" edge="1">
          <mxGeometry width="50" height="50" relative="1" as="geometry">
            <mxPoint x="963.94" y="241.14000000000013" as="sourcePoint" />
            <mxPoint x="1123.94" y="241.14000000000001" as="targetPoint" />
          </mxGeometry>
        </mxCell>
        <mxCell id="mLb4iFboR8zkR100jdQ6-8" value="&lt;b style=&quot;font-size: 10px;&quot;&gt;&lt;font data-font-src=&quot;https://fonts.googleapis.com/css?family=Roboto+Condensed&quot;&gt;Legend&lt;/font&gt;&lt;/b&gt;" style="text;html=1;strokeColor=none;fillColor=none;align=center;verticalAlign=middle;whiteSpace=wrap;rounded=0;fontSize=10;fontFamily=Helvetica;" parent="1" vertex="1">
          <mxGeometry x="643.94" y="180.48000000000002" width="50" height="20" as="geometry" />
        </mxCell>
        <mxCell id="mLb4iFboR8zkR100jdQ6-9" value="&lt;u&gt;Individual&lt;/u&gt;" style="rounded=0;whiteSpace=wrap;html=1;fontFamily=Helvetica;" parent="1" vertex="1">
          <mxGeometry x="813.94" y="225.48999999999998" width="129.5" height="30" as="geometry" />
        </mxCell>
        <mxCell id="5fMTM_yUQj7tKh12GMyz-2" value="&lt;div&gt;&lt;b&gt;dc:title&lt;/b&gt;: YANG Library Ontology&lt;br&gt;&lt;/div&gt;&lt;div&gt;&lt;b&gt;dc:created&lt;/b&gt;: &quot;2024-07-02&quot;^^xsd:date&lt;/div&gt;&lt;div&gt;&lt;b&gt;dc:creator:&lt;/b&gt;&amp;nbsp;Ignacio Dominguez Martinez-Casanueva&lt;br&gt;&lt;/div&gt;&lt;div&gt;&lt;b&gt;owl:versionInfo&lt;/b&gt;: 0.9.0&lt;br&gt;&lt;/div&gt;" style="shape=document;whiteSpace=wrap;html=1;boundedLbl=1;labelBackgroundColor=#ffffff;strokeColor=#000000;fontSize=12;fontColor=#000000;size=0.13333333333333333;align=left;spacingLeft=10;" parent="1" vertex="1">
          <mxGeometry x="310" y="178.22" width="311" height="120" as="geometry" />
        </mxCell>
        <mxCell id="MMhxp2RpZaPXFtDsb9Ic-6" value="Reused Class" style="rounded=0;whiteSpace=wrap;html=1;fillColor=#f5f5f5;strokeColor=#666666;fontFamily=Helvetica;fontColor=#333333;" parent="1" vertex="1">
          <mxGeometry x="1151.94" y="240.48999999999998" width="129.5" height="30" as="geometry" />
        </mxCell>
        <mxCell id="7pKTagEgV_TqgitrA6XD-2" value="&lt;div style=&quot;border-color: var(--border-color);&quot;&gt;&lt;b style=&quot;border-color: var(--border-color);&quot;&gt;ylib&lt;/b&gt;:&amp;nbsp;&lt;span style=&quot;white-space: pre;&quot;&gt;&lt;font style=&quot;&quot; face=&quot;Helvetica&quot;&gt;https://w3id.org/yang/library#&lt;/font&gt;&lt;/span&gt;&lt;/div&gt;&lt;div style=&quot;border-color: var(--border-color);&quot;&gt;&lt;span style=&quot;white-space: pre;&quot;&gt;&lt;font style=&quot;&quot; face=&quot;Helvetica&quot;&gt;&lt;b&gt;ys: &lt;/b&gt;&lt;/font&gt;&lt;/span&gt;&lt;span style=&quot;background-color: initial; white-space: pre;&quot;&gt;https://w3id.org/yang/server#&lt;/span&gt;&lt;/div&gt;&lt;div style=&quot;border-color: var(--border-color);&quot;&gt;&lt;b style=&quot;background-color: initial; border-color: var(--border-color);&quot;&gt;dcterms:&amp;nbsp;&lt;/b&gt;&lt;span style=&quot;background-color: initial;&quot;&gt;http://purl.org/dc/terms/&lt;/span&gt;&lt;/div&gt;&lt;b style=&quot;border-color: var(--border-color);&quot;&gt;&lt;div style=&quot;&quot;&gt;&lt;/div&gt;&lt;/b&gt;" style="shape=note;whiteSpace=wrap;html=1;backgroundOutline=1;darkOpacity=0.05;size=13;align=left;spacingLeft=10;" parent="1" vertex="1">
          <mxGeometry x="310" y="318.23" width="310" height="66.27" as="geometry" />
        </mxCell>
        <mxCell id="-U4SR4fcINFbDXNsC2DA-2" value="ys:Datastore" style="rounded=0;whiteSpace=wrap;html=1;snapToPoint=1;points=[[0.1,0],[0.2,0],[0.3,0],[0.4,0],[0.5,0],[0.6,0],[0.7,0],[0.8,0],[0.9,0],[0,0.1],[0,0.3],[0,0.5],[0,0.7],[0,0.9],[0.1,1],[0.2,1],[0.3,1],[0.4,1],[0.5,1],[0.6,1],[0.7,1],[0.8,1],[0.9,1],[1,0.1],[1,0.3],[1,0.5],[1,0.7],[1,0.9]];fillColor=#f5f5f5;strokeColor=#666666;align=center;verticalAlign=middle;fontFamily=Helvetica;fontSize=13;fontColor=#333333;" parent="1" vertex="1">
          <mxGeometry x="660" y="490" width="130" height="30" as="geometry" />
        </mxCell>
        <mxCell id="-U4SR4fcINFbDXNsC2DA-12" value="ylib:importsOnlyModule" style="edgeStyle=orthogonalEdgeStyle;rounded=0;orthogonalLoop=1;jettySize=auto;html=1;exitX=0.9;exitY=1;exitDx=0;exitDy=0;entryX=0.7;entryY=0;entryDx=0;entryDy=0;fontSize=13;" parent="1" source="-U4SR4fcINFbDXNsC2DA-4" target="-U4SR4fcINFbDXNsC2DA-9" edge="1">
          <mxGeometry x="-0.7229" y="25" relative="1" as="geometry">
            <Array as="points">
              <mxPoint x="1225" y="484" />
              <mxPoint x="1189" y="484" />
              <mxPoint x="1189" y="510" />
              <mxPoint x="1189" y="510" />
            </Array>
            <mxPoint as="offset" />
          </mxGeometry>
        </mxCell>
        <mxCell id="-U4SR4fcINFbDXNsC2DA-4" value="ylib:ModuleSet" style="rounded=0;whiteSpace=wrap;html=1;snapToPoint=1;points=[[0.1,0],[0.2,0],[0.3,0],[0.4,0],[0.5,0],[0.6,0],[0.7,0],[0.8,0],[0.9,0],[0,0.1],[0,0.3],[0,0.5],[0,0.7],[0,0.9],[0.1,1],[0.2,1],[0.3,1],[0.4,1],[0.5,1],[0.6,1],[0.7,1],[0.8,1],[0.9,1],[1,0.1],[1,0.3],[1,0.5],[1,0.7],[1,0.9]];fillColor=#dae8fc;strokeColor=#6c8ebf;fontSize=13;" parent="1" vertex="1">
          <mxGeometry x="1110" y="400" width="127.5" height="30" as="geometry" />
        </mxCell>
        <mxCell id="-U4SR4fcINFbDXNsC2DA-5" value="ylib:schema" style="edgeStyle=orthogonalEdgeStyle;rounded=0;orthogonalLoop=1;jettySize=auto;html=1;entryX=0.3;entryY=1;entryDx=0;entryDy=0;exitX=1;exitY=0.5;exitDx=0;exitDy=0;fontSize=13;dashed=1;startArrow=oval;startFill=0;" parent="1" source="-U4SR4fcINFbDXNsC2DA-2" target="-U4SR4fcINFbDXNsC2DA-7" edge="1">
          <mxGeometry relative="1" as="geometry">
            <Array as="points">
              <mxPoint x="871" y="505" />
            </Array>
            <mxPoint x="990" y="388.56" as="sourcePoint" />
            <mxPoint x="1040" y="253.55999999999977" as="targetPoint" />
          </mxGeometry>
        </mxCell>
        <mxCell id="-U4SR4fcINFbDXNsC2DA-7" value="dcterms:title" style="rounded=0;whiteSpace=wrap;html=1;snapToPoint=1;points=[[0.1,0],[0.2,0],[0.3,0],[0.4,0],[0.5,0],[0.6,0],[0.7,0],[0.8,0],[0.9,0],[0,0.1],[0,0.3],[0,0.5],[0,0.7],[0,0.9],[0.1,1],[0.2,1],[0.3,1],[0.4,1],[0.5,1],[0.6,1],[0.7,1],[0.8,1],[0.9,1],[1,0.1],[1,0.3],[1,0.5],[1,0.7],[1,0.9]];align=left;spacingLeft=10;dashed=1;fontSize=13;" parent="1" vertex="1">
          <mxGeometry x="835.33" y="430" width="120" height="30" as="geometry" />
        </mxCell>
        <mxCell id="-U4SR4fcINFbDXNsC2DA-22" value="ylib:implementsModule" style="edgeStyle=orthogonalEdgeStyle;rounded=0;orthogonalLoop=1;jettySize=auto;html=1;exitX=0.2;exitY=1;exitDx=0;exitDy=0;entryX=0.3;entryY=0;entryDx=0;entryDy=0;fontSize=13;" parent="1" source="-U4SR4fcINFbDXNsC2DA-4" target="-U4SR4fcINFbDXNsC2DA-9" edge="1">
          <mxGeometry x="0.1515" y="-12" relative="1" as="geometry">
            <mxPoint x="895" y="548.56" as="sourcePoint" />
            <mxPoint x="825" y="636.56" as="targetPoint" />
            <Array as="points">
              <mxPoint x="1110" y="480" />
              <mxPoint x="1095" y="480" />
            </Array>
            <mxPoint x="5" y="-10" as="offset" />
          </mxGeometry>
        </mxCell>
        <mxCell id="-U4SR4fcINFbDXNsC2DA-23" value="ylib:deviatesModule" style="edgeStyle=orthogonalEdgeStyle;rounded=0;orthogonalLoop=1;jettySize=auto;html=1;exitX=0.1;exitY=0;exitDx=0;exitDy=0;entryX=0;entryY=0.5;entryDx=0;entryDy=0;fontSize=13;" parent="1" source="-U4SR4fcINFbDXNsC2DA-9" target="-U4SR4fcINFbDXNsC2DA-9" edge="1">
          <mxGeometry relative="1" as="geometry">
            <Array as="points">
              <mxPoint x="1066" y="510" />
              <mxPoint x="980" y="510" />
              <mxPoint x="980" y="553" />
            </Array>
          </mxGeometry>
        </mxCell>
        <mxCell id="-U4SR4fcINFbDXNsC2DA-24" value="ylib:augmentsModule" style="edgeStyle=orthogonalEdgeStyle;rounded=0;orthogonalLoop=1;jettySize=auto;html=1;exitX=0.9;exitY=0;exitDx=0;exitDy=0;entryX=1;entryY=0.5;entryDx=0;entryDy=0;fontSize=13;" parent="1" source="-U4SR4fcINFbDXNsC2DA-9" target="-U4SR4fcINFbDXNsC2DA-9" edge="1">
          <mxGeometry x="0.0217" relative="1" as="geometry">
            <Array as="points">
              <mxPoint x="1230" y="510" />
              <mxPoint x="1320" y="510" />
              <mxPoint x="1320" y="553" />
            </Array>
            <mxPoint as="offset" />
          </mxGeometry>
        </mxCell>
        <mxCell id="-U4SR4fcINFbDXNsC2DA-3" value="ylib:Schema" style="rounded=0;whiteSpace=wrap;html=1;snapToPoint=1;points=[[0.1,0],[0.2,0],[0.3,0],[0.4,0],[0.5,0],[0.6,0],[0.7,0],[0.8,0],[0.9,0],[0,0.1],[0,0.3],[0,0.5],[0,0.7],[0,0.9],[0.1,1],[0.2,1],[0.3,1],[0.4,1],[0.5,1],[0.6,1],[0.7,1],[0.8,1],[0.9,1],[1,0.1],[1,0.3],[1,0.5],[1,0.7],[1,0.9]];fillColor=#dae8fc;strokeColor=#6c8ebf;fontSize=13;" parent="1" vertex="1">
          <mxGeometry x="835.33" y="400" width="120" height="30" as="geometry" />
        </mxCell>
        <mxCell id="-U4SR4fcINFbDXNsC2DA-27" value="dcterms:title&lt;div style=&quot;font-size: 13px;&quot;&gt;ylib:namespace xsd:anyURI&lt;br style=&quot;font-size: 13px;&quot;&gt;&lt;div style=&quot;font-size: 13px;&quot;&gt;&lt;div style=&quot;font-size: 13px;&quot;&gt;ylib:revisionDate xsd:date&lt;/div&gt;&lt;/div&gt;&lt;div style=&quot;font-size: 13px;&quot;&gt;ylib:location xsd:anyURI&lt;/div&gt;&lt;/div&gt;" style="rounded=0;whiteSpace=wrap;html=1;snapToPoint=1;points=[[0.1,0],[0.2,0],[0.3,0],[0.4,0],[0.5,0],[0.6,0],[0.7,0],[0.8,0],[0.9,0],[0,0.1],[0,0.3],[0,0.5],[0,0.7],[0,0.9],[0.1,1],[0.2,1],[0.3,1],[0.4,1],[0.5,1],[0.6,1],[0.7,1],[0.8,1],[0.9,1],[1,0.1],[1,0.3],[1,0.5],[1,0.7],[1,0.9]];align=left;spacingLeft=10;dashed=1;fontSize=13;" parent="1" vertex="1">
          <mxGeometry x="1045.01" y="568.22" width="204.99" height="81.78" as="geometry" />
        </mxCell>
        <mxCell id="-U4SR4fcINFbDXNsC2DA-30" value="ylib:includesSubmodule" style="edgeStyle=orthogonalEdgeStyle;rounded=0;orthogonalLoop=1;jettySize=auto;html=1;exitX=0;exitY=0.5;exitDx=0;exitDy=0;entryX=1;entryY=0.5;entryDx=0;entryDy=0;fontSize=13;" parent="1" source="-U4SR4fcINFbDXNsC2DA-27" target="-U4SR4fcINFbDXNsC2DA-38" edge="1">
          <mxGeometry x="-0.0101" y="1" relative="1" as="geometry">
            <mxPoint x="860" y="568.44" as="targetPoint" />
            <mxPoint as="offset" />
          </mxGeometry>
        </mxCell>
        <mxCell id="-U4SR4fcINFbDXNsC2DA-38" value="dcterms:title&lt;div style=&quot;font-size: 13px;&quot;&gt;&lt;div style=&quot;font-size: 13px;&quot;&gt;ylib:revisionDate xsd:date&lt;/div&gt;&lt;/div&gt;&lt;div style=&quot;font-size: 13px;&quot;&gt;ylib:location xsd:anyURI&lt;/div&gt;" style="rounded=0;whiteSpace=wrap;html=1;snapToPoint=1;points=[[0.1,0],[0.2,0],[0.3,0],[0.4,0],[0.5,0],[0.6,0],[0.7,0],[0.8,0],[0.9,0],[0,0.1],[0,0.3],[0,0.5],[0,0.7],[0,0.9],[0.1,1],[0.2,1],[0.3,1],[0.4,1],[0.5,1],[0.6,1],[0.7,1],[0.8,1],[0.9,1],[1,0.1],[1,0.3],[1,0.5],[1,0.7],[1,0.9]];align=left;spacingLeft=10;dashed=1;fontSize=13;" parent="1" vertex="1">
          <mxGeometry x="643.94" y="578" width="190" height="60" as="geometry" />
        </mxCell>
        <mxCell id="-U4SR4fcINFbDXNsC2DA-10" value="ylib:Submodule" style="rounded=0;whiteSpace=wrap;html=1;snapToPoint=1;points=[[0.1,0],[0.2,0],[0.3,0],[0.4,0],[0.5,0],[0.6,0],[0.7,0],[0.8,0],[0.9,0],[0,0.1],[0,0.3],[0,0.5],[0,0.7],[0,0.9],[0.1,1],[0.2,1],[0.3,1],[0.4,1],[0.5,1],[0.6,1],[0.7,1],[0.8,1],[0.9,1],[1,0.1],[1,0.3],[1,0.5],[1,0.7],[1,0.9]];fillColor=#dae8fc;strokeColor=#6c8ebf;fontSize=13;" parent="1" vertex="1">
          <mxGeometry x="643.94" y="550" width="190" height="30" as="geometry" />
        </mxCell>
        <mxCell id="-U4SR4fcINFbDXNsC2DA-9" value="ylib:Module" style="rounded=0;whiteSpace=wrap;html=1;snapToPoint=1;points=[[0.1,0],[0.2,0],[0.3,0],[0.4,0],[0.5,0],[0.6,0],[0.7,0],[0.8,0],[0.9,0],[0,0.1],[0,0.3],[0,0.5],[0,0.7],[0,0.9],[0.1,1],[0.2,1],[0.3,1],[0.4,1],[0.5,1],[0.6,1],[0.7,1],[0.8,1],[0.9,1],[1,0.1],[1,0.3],[1,0.5],[1,0.7],[1,0.9]];fillColor=#dae8fc;strokeColor=#6c8ebf;fontSize=13;" parent="1" vertex="1">
          <mxGeometry x="1045.01" y="538.22" width="204.99" height="30" as="geometry" />
        </mxCell>
        <mxCell id="8NjpxIdEmAaClV-GCsp--5" value="ys:datastore" style="edgeStyle=orthogonalEdgeStyle;rounded=0;orthogonalLoop=1;jettySize=auto;html=1;exitX=0.4;exitY=1;exitDx=0;exitDy=0;entryX=0.5;entryY=0;entryDx=0;entryDy=0;fontSize=13;" parent="1" source="8NjpxIdEmAaClV-GCsp--4" target="-U4SR4fcINFbDXNsC2DA-2" edge="1">
          <mxGeometry relative="1" as="geometry" />
        </mxCell>
        <mxCell id="8NjpxIdEmAaClV-GCsp--4" value="ys:YangServer" style="rounded=0;whiteSpace=wrap;html=1;snapToPoint=1;points=[[0.1,0],[0.2,0],[0.3,0],[0.4,0],[0.5,0],[0.6,0],[0.7,0],[0.8,0],[0.9,0],[0,0.1],[0,0.3],[0,0.5],[0,0.7],[0,0.9],[0.1,1],[0.2,1],[0.3,1],[0.4,1],[0.5,1],[0.6,1],[0.7,1],[0.8,1],[0.9,1],[1,0.1],[1,0.3],[1,0.5],[1,0.7],[1,0.9]];fillColor=#f5f5f5;strokeColor=#666666;align=center;verticalAlign=middle;fontFamily=Helvetica;fontSize=13;fontColor=#333333;" parent="1" vertex="1">
          <mxGeometry x="663.94" y="320" width="150" height="30" as="geometry" />
        </mxCell>
        <mxCell id="8NjpxIdEmAaClV-GCsp--7" value="ylib:moduleSet" style="edgeStyle=orthogonalEdgeStyle;rounded=0;orthogonalLoop=1;jettySize=auto;html=1;exitX=1;exitY=0.5;exitDx=0;exitDy=0;entryX=0.5;entryY=0;entryDx=0;entryDy=0;dashed=1;startArrow=oval;startFill=0;fontSize=13;" parent="1" source="8NjpxIdEmAaClV-GCsp--4" target="-U4SR4fcINFbDXNsC2DA-4" edge="1">
          <mxGeometry relative="1" as="geometry" />
        </mxCell>
        <mxCell id="8NjpxIdEmAaClV-GCsp--6" value="ylib:schema" style="edgeStyle=orthogonalEdgeStyle;rounded=0;orthogonalLoop=1;jettySize=auto;html=1;exitX=0.8;exitY=1;exitDx=0;exitDy=0;entryX=0.5;entryY=0;entryDx=0;entryDy=0;dashed=1;strokeColor=default;align=center;verticalAlign=middle;fontFamily=Helvetica;fontSize=13;fontColor=default;labelBackgroundColor=default;startArrow=oval;startFill=0;endArrow=classic;" parent="1" source="8NjpxIdEmAaClV-GCsp--4" target="-U4SR4fcINFbDXNsC2DA-3" edge="1">
          <mxGeometry relative="1" as="geometry">
            <Array as="points">
              <mxPoint x="784" y="375" />
              <mxPoint x="895" y="375" />
            </Array>
          </mxGeometry>
        </mxCell>
        <mxCell id="-U4SR4fcINFbDXNsC2DA-6" value="ylib:moduleSet" style="edgeStyle=orthogonalEdgeStyle;rounded=0;orthogonalLoop=1;jettySize=auto;html=1;exitDx=0;exitDy=0;entryX=0;entryY=0.5;entryDx=0;entryDy=0;exitX=1;exitY=0.5;fontSize=13;dashed=1;strokeColor=default;align=center;verticalAlign=middle;fontFamily=Helvetica;fontColor=default;labelBackgroundColor=default;startArrow=oval;startFill=0;endArrow=classic;" parent="1" source="-U4SR4fcINFbDXNsC2DA-3" target="-U4SR4fcINFbDXNsC2DA-4" edge="1">
          <mxGeometry relative="1" as="geometry" />
        </mxCell>
      </root>
    </mxGraphModel>
  </diagram>
</mxfile>
